/* XPM */
static char *drap1_xpm[] = {
/* columns rows colors chars-per-pixel */
"47 21 222 2",
"$  c Black",
"H  c #327710",
"j. c #DE0000",
"OX c #72875F",
"d  c #FE1515",
"=X c #A37C7C",
"iX c #A68989",
"p  c #6A1212",
"C  c #FE1212",
"j  c #C12A2A",
"b  c #18C81D",
"W  c #FE0F0F",
"S  c #F40404",
"^  c #E80202",
"0X c #570F0F",
"}. c #DC0000",
"!. c #678C51",
"@  c #ABB395",
"<X c #9E6F6F",
"N  c #890B0B",
"$. c #FE0C0C",
"r  c #17DB1C",
"*. c #ED0303",
"v  c #19D218",
"u. c #FE0909",
"l  c #1BCC1C",
";. c #CC0A0A",
"I. c #DA0000",
"O  c #A9B395",
"]. c #D17878",
"L. c #EB0303",
"q  c #7B3E3E",
"M  c #B38F8F",
"m  c #559046",
"x. c #299614",
"=. c #E40202",
"B  c #F61E1E",
"~. c #19A323",
"A. c #11C133",
"7. c #12A82C",
",X c #621B1B",
"4X c #580D0D",
"5. c #16BC23",
"_  c #1AD318",
"6  c #EA1616",
"4  c #9B0F0F",
"XX c #A27A7A",
"x  c #18D91B",
"K. c #DB0404",
"G. c #E31515",
"k  c #433607",
"+  c #AAB495",
"0  c #CC9797",
"*X c #530000",
":  c #1CC71A",
"   c None",
"1  c #1EBE15",
"[  c #13AC2A",
"3  c #935F5F",
"&  c #D19595",
"{. c #D90101",
"R  c #FE1D1D",
"X  c #A8B494",
"A  c #FD0404",
"^. c #13A92B",
"@. c #FE1A1A",
"/. c #13A92E",
"y. c #FE1717",
".  c #8A6159",
"rX c #915F5F",
"2  c #6C9553",
"C. c #11AC30",
"_. c #A87F7F",
"@X c #BFA2A2",
"-X c #824A4A",
"|  c #52944E",
"pX c #855757",
"H. c #DF0F0F",
"z  c #17DD1D",
"f  c #FE0E0E",
";  c #3E490A",
"+. c #EE1E1E",
"y  c #19D418",
"$X c #BA2828",
"8. c #11A62F",
"Z  c #FE0B0B",
"c. c #33AC26",
"3. c #17DA1D",
"qX c #4D0000",
"!  c #F90404",
",. c #CD9292",
",  c #1DC518",
"J. c #DF0909",
"Q  c #FE0808",
"P  c #15BA23",
" X c #BF2929",
"E. c #BE4848",
"%. c #FE0505",
"wX c #A9898A",
")  c #1DC21A",
"N. c #15B725",
"K  c #19CE1A",
"O. c #7B0808",
"q. c #11C634",
"o. c #B0B09D",
"2X c #7B3D3D",
"U. c #DF0000",
"7  c #EE0F0F",
"1X c #8D5959",
"~  c #F00303",
":. c #C03333",
"T  c #C61818",
";X c #884F4F",
"8  c #EE0909",
"&. c #F50404",
"a. c #E90202",
"f. c #DD0000",
">. c #C37272",
"(  c #552B13",
"G  c #905D5D",
"V. c #12A42E",
"I  c #17A525",
"+X c #80936E",
"J  c #18D81A",
"-  c #B99C9C",
"e  c #16DE1E",
"tX c #845555",
"9  c #DE0D0D",
"[. c #D20B0B",
"B. c #13AE29",
"4. c #17C51E",
"'. c #C17272",
"s. c #E00101",
"Q. c #9EAB8C",
"*  c #D19494",
"P. c #E50202",
"s  c #FE1C1C",
"}  c #199629",
"9. c #11B131",
"V  c #FE1919",
"v. c #47A133",
"#X c #B64545",
"Y  c #681F1F",
"u  c #18CC1B",
"E  c #FE1616",
"U  c #7F9D72",
"oX c #72855E",
"(. c #1C9A29",
"W. c #51250D",
"k. c #D70000",
"#. c #FE1313",
"2. c #38600D",
"6. c #14B227",
"`  c #18C91C",
"). c #609253",
"z. c #642820",
" . c #739564",
"n  c #17B920",
"3X c #9C7C7C",
"9X c #A18080",
"7X c #805252",
"-. c #DC0101",
"c  c #19D619",
"D. c #600202",
"h. c #E80000",
"8X c #7D3F3F",
"&X c #B94646",
"yX c #5F1E1E",
"e. c #409D3F",
"F. c #DB1A1A",
"g  c #FE0707",
"n. c #4A9F33",
".X c #854D4D",
"/  c #C50A0A",
"T. c #E60000",
"#  c #A17474",
"1. c #AE8C8C",
"]  c #15B625",
"|. c #D30000",
"w  c #25A617",
"%X c #BD2828",
"d. c #D80101",
"Y. c #E40000",
"'  c #16C021",
"5X c #621C1C",
"l. c #E4A5A5",
"R. c #D10000",
"M. c #18B71E",
"uX c #AF9696",
"eX c #6D3737",
"i. c #FA0404",
"0. c #11BC33",
"<. c #CE9292",
">X c #5D0F0F",
"g. c #E20000",
"w. c #12CC34",
"{  c #12A32E",
"r. c #AC1313",
"D  c #DB0202",
"t  c #18D71A",
"S. c #1CA82B",
"<  c #1EC216",
"o  c #A5AE8F",
">  c #1CC81A",
"`. c #901E1E",
"Z. c #11B632",
"L  c #17C41F",
"6X c #8E5C5C",
"h  c #F80404",
"F  c #CC9292",
"m. c #389725",
"b. c #49A034",
"%  c #D19696",
"t. c #FE1E1E",
":X c #A57C7C",
"i  c #21A019",
"X. c #759764",
"p. c #F10303",
"=  c #D19393",
"a  c #DF1C1C",
".. c #759463",
"5  c #DF1919",
/* pixels */
"                . X o O + @                                     # $ % & * =                   ",
"              - ; : > , < 1 2                                 3 4 5 6 7 8 9 0                 ",
"              q w e r t y u i                                 p a s d f g h j                 ",
"              k l z x c v b n m                             M N B V C Z A S D F               ",
"            G H e r J y K L P I U                           Y T R E W Q ! ~ ^ /               ",
"            ( ) z x c _ ` ' ] [ { } |  ...X.X.o.            O.+.@.#.$.%.&.*.=.-.;.:.>.,.<.    ",
"          1.2.3.r J y K 4.5.6.7.8.9.0.q.w.e.              3 r.t.y.W u.i.p.a.s.d.f.g.h.j.k.l.  ",
"          z.x.c.v.b.n.m.M.N.B.V.C.Z.A.S.X.                D.F.G.H.J.K.L.*.P.-.I.U.Y.T.R.E.    ",
"          W.Q.          !.~.^.8./.(.).                  _.`.'.        ].[.I.{.}.g.|. X        ",
"        .XXX                oXOX+X                      Y @X              #X$X%X&X            ",
"        *X                                              Y                                     ",
"      =X-X                                            ;X:X                                    ",
"      >X                                              *X                                      ",
"      ,X                                            <X1X                                      ",
"    2X3X                                            >X                                        ",
"    4X                                              5X                                        ",
"  6X7X                                            8X9X                                        ",
"  0X                                              qX                                          ",
"wXeX                                            rXtX                                          ",
"yXuX                                            0X                                            ",
"iX                                              pX                                            "
};
